<svg width="91" height="42" viewBox="0 0 91 42" fill="none" xmlns="http://www.w3.org/2000/svg">
<g clip-path="url(#clip0_2001_6)">
<path d="M22.9118 11.9524C22.7857 11.7041 22.6564 11.4557 22.5238 11.2107C22.388 10.9591 22.2587 10.6944 22.1423 10.4232C21.8999 9.99186 21.6542 9.56054 21.4731 9.09655C21.347 8.76979 21.2242 8.41036 21.1175 8.03132C21.0981 7.98557 21.0819 7.93983 21.0625 7.89081C21.0528 7.87121 21.0431 7.8516 21.0334 7.832C21.0076 7.77318 20.9882 7.7111 20.9752 7.64901C20.7651 7.03797 20.5711 6.31584 20.4386 5.8257C19.8631 3.67564 18.8965 0.0813033 15.7508 0.858987C13.1871 1.4929 12.6343 4.86177 11.9942 8.75999C11.8552 9.60956 11.6515 10.8349 11.4122 11.9034C11.4025 12.008 11.3896 12.1125 11.367 12.2138C11.3476 12.3086 11.3056 12.3968 11.27 12.4883C11.2571 12.534 11.2474 12.5798 11.2344 12.6255C11.2765 12.5634 11.2829 12.5994 11.2441 12.7497C11.228 12.8837 11.2118 13.0176 11.1924 13.1516C11.1892 13.1745 11.0211 13.6777 11.1019 13.4816C10.9047 13.9718 11.1148 13.4392 11.0114 13.7823C10.9661 13.926 10.9467 13.9914 10.9402 14.0142C10.9564 13.9554 11.0211 13.7071 10.8529 14.1188C10.8723 14.0731 10.8626 14.0861 10.84 14.1188C10.8206 14.2103 10.798 14.2887 10.7818 14.341C10.7883 14.3279 10.7883 14.3312 10.7721 14.3737C10.7721 14.3671 10.7786 14.3508 10.7818 14.341C10.7657 14.377 10.6913 14.5501 10.6654 14.622C10.6654 14.6253 10.6654 14.6253 10.6654 14.6286C10.6493 14.6612 10.6557 14.6514 10.6654 14.622C10.6751 14.573 10.6687 14.5893 10.6428 14.6743C10.6234 14.7495 10.5911 14.8181 10.5555 14.8834C10.5555 14.8834 10.5555 14.8867 10.5555 14.89C10.5167 14.9553 10.4715 15.0174 10.4165 15.0729C10.3874 15.1024 10.3583 15.1252 10.326 15.1481C10.2775 15.2919 10.1805 15.5239 10.2775 15.3017C10.2484 15.367 10.2225 15.4324 10.1934 15.4945C10.1579 15.6088 10.1126 15.7101 10.0641 15.8082C10.0544 15.8245 10.0479 15.8408 10.0382 15.8572C9.98652 15.9552 9.93156 16.0467 9.8766 16.1447C9.78931 16.2591 9.78284 16.2656 9.86367 16.1643C9.82487 16.2231 9.77961 16.2787 9.73758 16.3342C9.71495 16.3636 9.69555 16.393 9.67292 16.4225C9.64059 16.4617 9.6018 16.4943 9.563 16.5303C9.47895 16.7165 9.38196 16.8897 9.26234 17.0498C9.21062 17.1805 9.13302 17.2949 9.03927 17.4125C9.0231 17.4289 9.01987 17.4321 9.01017 17.4419C8.99078 17.4681 8.94551 17.5236 8.87439 17.6151C8.83883 17.6576 8.76124 17.7491 8.67072 17.8406C5.0563 22.4119 0.2651 23.8202 0 23.8954L0.940782 27.3623C1.34813 27.2512 10.7624 26.7186 14.5773 14.8769C15.1754 13.3607 15.4954 11.4067 15.8252 9.40043C15.9836 8.42996 16.2067 7.07065 16.4653 6.00869C16.5526 6.3093 16.6302 6.60665 16.6948 6.84845C17.3156 9.1619 18.2434 12.6223 21.263 12.619C21.3664 12.619 21.4731 12.6157 21.583 12.6059C22.1229 12.5634 22.5885 12.4001 23.0055 12.1485C22.9732 12.0798 22.9441 12.0112 22.9085 11.9491L22.9118 11.9524Z" fill="white"/>
<path d="M23.1831 14.638C22.7758 14.7491 13.3615 15.2817 9.54665 27.1234C8.94856 28.6396 8.6285 30.5936 8.29874 32.5999C8.14033 33.5704 7.91726 34.9297 7.65862 35.9916C7.57133 35.691 7.49374 35.3937 7.42909 35.1519C6.80836 32.8384 5.88051 29.3781 2.86096 29.3813C2.7575 29.3813 2.65082 29.3846 2.5409 29.3944C2.001 29.4369 1.53546 29.6003 1.11841 29.8519C1.15074 29.9205 1.17983 29.9891 1.2154 30.0512C1.34148 30.2995 1.4708 30.5479 1.60335 30.7929C1.73913 31.0445 1.86845 31.3092 1.98483 31.5804C2.2273 32.0117 2.47301 32.4431 2.65405 32.9071C2.78013 33.2338 2.90298 33.5932 3.00967 33.9723C3.02907 34.018 3.04523 34.0638 3.06463 34.1128C3.07433 34.1324 3.08403 34.152 3.09373 34.1716C3.11959 34.2304 3.13899 34.2925 3.15192 34.3546C3.36206 34.9656 3.55604 35.6878 3.68859 36.1779C4.26405 38.328 5.23069 41.9223 8.37633 41.1446C10.94 40.5107 11.4929 37.1418 12.133 33.2436C12.272 32.394 12.4757 31.1687 12.7149 30.1002C12.7246 29.9956 12.7376 29.8911 12.7602 29.7898C12.7796 29.695 12.8216 29.6068 12.8572 29.5153C12.8701 29.4696 12.8798 29.4238 12.8927 29.3781C12.8507 29.4402 12.8442 29.4042 12.883 29.2539C12.8992 29.1199 12.9154 28.986 12.9348 28.852C12.938 28.8291 13.1061 28.3259 13.0253 28.522C13.2225 28.0318 13.0124 28.5644 13.1158 28.2213C13.1611 28.0776 13.1805 28.0122 13.1869 27.9894C13.1708 28.0482 13.1061 28.2965 13.2742 27.8848C13.2548 27.9305 13.2645 27.9175 13.2872 27.8848C13.3066 27.7933 13.3292 27.7149 13.3453 27.6626C13.3389 27.6757 13.3389 27.6724 13.355 27.6299C13.355 27.6365 13.3486 27.6528 13.3453 27.6626C13.3615 27.6267 13.4359 27.4535 13.4617 27.3816C13.4617 27.3783 13.4617 27.3783 13.4617 27.375C13.4779 27.3424 13.4714 27.3522 13.4617 27.3816C13.452 27.4306 13.4585 27.4143 13.4844 27.3293C13.5038 27.2541 13.5361 27.1823 13.5717 27.1169C13.5717 27.1169 13.5717 27.1136 13.5717 27.1104C13.6104 27.045 13.6557 26.9829 13.7107 26.9274C13.7398 26.898 13.7689 26.8751 13.8012 26.8522C13.8497 26.7085 13.9467 26.4765 13.8497 26.6987C13.8788 26.6333 13.9046 26.568 13.9337 26.5059C13.9693 26.3915 14.0146 26.2902 14.0631 26.1922C14.0728 26.1758 14.0792 26.1595 14.0889 26.1432C14.1406 26.0451 14.1956 25.9537 14.2506 25.8556C14.3379 25.7413 14.3443 25.7347 14.2635 25.836C14.3023 25.7772 14.3476 25.7217 14.3896 25.6661C14.4122 25.6367 14.4316 25.6073 14.4542 25.5779C14.4866 25.5387 14.5254 25.506 14.5642 25.4701C14.6482 25.2838 14.7452 25.1106 14.8648 24.9505C14.9165 24.8198 14.9941 24.7054 15.0879 24.5878C15.1041 24.5715 15.1073 24.5682 15.117 24.5584C15.1364 24.5323 15.1816 24.4767 15.2528 24.3852C15.2883 24.3427 15.3659 24.2512 15.4564 24.1598C19.0709 19.5851 23.8621 18.1768 24.1272 18.1017L23.1864 14.6348L23.1831 14.638Z" fill="white"/>
</g>
<path d="M46.7782 16.4632C47.7249 16.4632 48.5404 16.6744 49.2249 17.0967C49.9094 17.5045 50.3973 18.1162 50.6885 18.9317C50.9944 19.7327 51.0235 20.7376 50.7759 21.9464L49.487 28.5H45.3364L46.5598 22.3833C46.72 21.5823 46.669 20.9852 46.4069 20.592C46.1593 20.1842 45.7442 19.9803 45.1617 19.9803C44.5354 19.9803 44.0039 20.1842 43.567 20.592C43.1446 20.9852 42.8388 21.6333 42.6495 22.5362L41.448 28.5H37.2973L38.5425 22.3833C38.7027 21.5823 38.6518 20.9852 38.3896 20.592C38.142 20.1842 37.727 19.9803 37.1444 19.9803C36.5182 19.9803 35.9866 20.1842 35.5497 20.592C35.1128 20.9998 34.7997 21.6624 34.6104 22.5799L33.4307 28.5H29.2801L31.6394 16.6598H35.5716L35.0036 19.4123L34.3919 19.0191C34.9308 18.1453 35.5934 17.5045 36.3798 17.0967C37.1808 16.6744 38.011 16.4632 38.8702 16.4632C39.5693 16.4632 40.2028 16.5943 40.7708 16.8564C41.3533 17.104 41.8339 17.49 42.2125 18.0142C42.5912 18.524 42.8169 19.172 42.8898 19.9585L41.6009 19.5871C42.1397 18.5822 42.8533 17.8104 43.7417 17.2715C44.6301 16.7327 45.6423 16.4632 46.7782 16.4632ZM53.2697 32.9346C52.6435 32.9346 52.0245 32.8399 51.4128 32.6506C50.7866 32.4613 50.2915 32.2137 49.9274 31.9079L51.7842 28.9806C52.0318 29.1845 52.3085 29.3447 52.6143 29.4612C52.9202 29.5923 53.2551 29.6578 53.6192 29.6578C54.027 29.6578 54.3765 29.5559 54.6678 29.352C54.9591 29.1481 55.2358 28.8277 55.4979 28.3908L56.3499 27.0145L56.6994 26.5995L62.6632 16.6598H66.7264L59.1461 29.0243C58.5344 30.0292 57.9373 30.8156 57.3548 31.3836C56.7722 31.9516 56.1533 32.3521 55.4979 32.5851C54.8426 32.8181 54.0998 32.9346 53.2697 32.9346ZM55.4542 29.0024L52.6799 16.6598H56.8086L58.7747 26.2281L55.4542 29.0024ZM71.003 28.6966C70.0855 28.6966 69.299 28.5218 68.6437 28.1723C67.9883 27.8082 67.5223 27.2839 67.2456 26.5995C66.9689 25.9004 66.9252 25.0703 67.1145 24.1091L69.1243 14.0165H73.2749L71.2651 24.0872C71.1923 24.5387 71.2433 24.8882 71.418 25.1358C71.5928 25.3688 71.8914 25.4853 72.3137 25.4853C72.5322 25.4853 72.7433 25.4562 72.9472 25.398C73.1511 25.3397 73.355 25.2523 73.5589 25.1358L74.0832 27.9976C73.6463 28.2451 73.1584 28.4199 72.6195 28.5218C72.0952 28.6384 71.5564 28.6966 71.003 28.6966ZM66.1533 20.1988L66.7868 17.0967H75.3502L74.7385 20.1988H66.1533ZM81.7649 28.6966C80.5124 28.6966 79.4201 28.4709 78.4881 28.0194C77.556 27.5679 76.8351 26.9417 76.3254 26.1407C75.8157 25.3251 75.5608 24.3785 75.5608 23.3008C75.5608 21.9901 75.8739 20.825 76.5002 19.8056C77.1264 18.7715 77.9856 17.956 79.0779 17.3589C80.1702 16.7618 81.4226 16.4632 82.8353 16.4632C84.1023 16.4632 85.1946 16.689 86.1121 17.1404C87.0442 17.5773 87.7651 18.1963 88.2748 18.9973C88.7845 19.7983 89.0394 20.7449 89.0394 21.8372C89.0394 23.1479 88.7263 24.3203 88.1 25.3543C87.4738 26.3883 86.6145 27.2038 85.5223 27.8009C84.43 28.3981 83.1775 28.6966 81.7649 28.6966ZM82.0052 25.398C82.5586 25.398 83.0465 25.2596 83.4688 24.9829C83.8912 24.6916 84.2188 24.2984 84.4519 23.8033C84.6994 23.3081 84.8232 22.7256 84.8232 22.0556C84.8232 21.4003 84.6266 20.8541 84.2334 20.4172C83.8547 19.9803 83.3086 19.7619 82.595 19.7619C82.0416 19.7619 81.5537 19.9002 81.1314 20.1769C80.709 20.4536 80.3741 20.8469 80.1265 21.3566C79.8935 21.8517 79.777 22.4343 79.777 23.1042C79.777 23.8033 79.9736 24.364 80.3668 24.7863C80.76 25.1941 81.3061 25.398 82.0052 25.398Z" fill="white"/>
<defs>
<clipPath id="clip0_2001_6">
<rect width="24.1209" height="40.5049" fill="white" transform="translate(0 0.747559)"/>
</clipPath>
</defs>
</svg>
